<?xml version="1.0" encoding="UTF-8" standalone="no"?><!DOCTYPE svg PUBLIC "-//W3C//DTD SVG 1.1//EN" "http://www.w3.org/Graphics/SVG/1.1/DTD/svg11.dtd"><svg width="100%" height="100%" viewBox="0 0 4167 4167" version="1.1" xmlns="http://www.w3.org/2000/svg" xmlns:xlink="http://www.w3.org/1999/xlink" xml:space="preserve" xmlns:serif="http://www.serif.com/" style="fill-rule:evenodd;clip-rule:evenodd;stroke-linejoin:round;stroke-miterlimit:2;"><g><rect x="0" y="0" width="4166.67" height="4166.67" style="fill:#ffbe79;fill-rule:nonzero;"/><g><clipPath id="_clip1"><path d="M1010.91,1178.71l2141.85,0.008l0,1809.26l-2141.85,0l-0,-1809.26Z"/></clipPath><g clip-path="url(#_clip1)"><path d="M2999.78,1178.71l-662.849,0c-47.082,0 -76.187,23.685 -116.661,55.101l-1105.24,855.821c-69.37,49.051 -104.12,105.609 -104.12,166.658c-0,84.477 68.493,153.002 153.017,153.002l-0,578.667l839.131,-0l996.717,-924.586l-0,-578.667c84.431,-0 152.986,-68.525 152.986,-153.048c-0.031,-84.454 -68.555,-152.948 -152.986,-152.948Zm-1055.49,1230.58l-0,519.898l-721.626,0l0,-519.898c0,-32.44 -26.321,-58.769 -58.737,-58.769c-51.983,0 -94.249,-42.258 -94.249,-94.21c0,-51.983 42.297,-94.248 94.249,-94.248l839.131,-0c51.921,-0 94.179,42.289 94.179,94.248c0,51.983 -42.289,94.21 -94.179,94.21c-32.478,0 -58.768,26.329 -58.768,58.769Z" style="fill:#374151;fill-rule:nonzero;"/><path d="M1428.67,2301.99c-0,7.453 -6.034,13.517 -13.486,13.517c-7.453,0 -13.479,-6.064 -13.479,-13.517c-0,-7.452 6.026,-13.478 13.479,-13.478c7.452,-0 13.486,6.026 13.486,13.478Z" style="fill:#374151;fill-rule:nonzero;"/><path d="M1492.92,2577.75c0,10.423 -8.422,18.845 -18.845,18.845c-10.392,0 -18.845,-8.422 -18.845,-18.845c0,-10.392 8.453,-18.845 18.845,-18.845c10.423,0 18.845,8.453 18.845,18.845Z" style="fill:#374151;fill-rule:nonzero;"/><path d="M1733.87,2414.44c0,10.423 -8.422,18.845 -18.845,18.845c-10.384,0 -18.837,-8.422 -18.837,-18.845c-0,-10.392 8.453,-18.837 18.837,-18.837c10.423,-0 18.845,8.445 18.845,18.837Z" style="fill:#374151;fill-rule:nonzero;"/><path d="M1743.96,2813.38c0,12.99 -10.546,23.537 -23.567,23.537c-12.998,0 -23.568,-10.547 -23.568,-23.537c-0,-13.029 10.57,-23.568 23.568,-23.568c13.021,0 23.567,10.539 23.567,23.568Z" style="fill:#374151;fill-rule:nonzero;"/><path d="M1324.09,2801.29c0,6.638 -5.359,11.997 -11.997,11.997c-6.631,0 -11.997,-5.359 -11.997,-11.997c-0,-6.6 5.366,-11.966 11.997,-11.966c6.638,-0 11.997,5.366 11.997,11.966Z" style="fill:#374151;fill-rule:nonzero;"/><path d="M1246.63,2269.88c-0,10.392 -8.453,18.837 -18.845,18.837c-10.423,0 -18.869,-8.445 -18.869,-18.837c0,-10.423 8.446,-18.845 18.869,-18.845c10.392,-0 18.845,8.422 18.845,18.845Z" style="fill:#374151;fill-rule:nonzero;"/><path d="M1822.24,2221.69c0,7.453 -6.033,13.471 -13.486,13.471c-7.453,0 -13.51,-6.018 -13.51,-13.471c0,-7.452 6.057,-13.486 13.51,-13.486c7.453,0 13.486,6.034 13.486,13.486Z" style="fill:#374151;fill-rule:nonzero;"/></g></g><path d="M550.544,1478.67l-83.608,0.52l-40.622,118.685l65.826,51.378l-11.873,34.72l-240.022,-196.578l13.362,-39.078l310.206,-8.298l-13.269,38.651Zm-149.589,99.429l33.688,-98.428l-119.871,-0.334l-42.08,-2.419l-1.272,3.691l34.743,23.871l94.792,73.619Zm195.577,-257.254c3.94,-7.724 6.6,-15.448 7.934,-23.149c1.303,-7.631 1.241,-14.781 -0.148,-21.474c-1.396,-6.701 -4.063,-12.727 -8.003,-18.116c-3.994,-5.305 -9.236,-9.601 -15.72,-12.936c-7.631,-3.939 -15.022,-5.452 -22.172,-4.638c-7.15,0.854 -14.207,3.149 -21.148,6.911c-6.995,3.784 -13.967,8.631 -21.024,14.571c-6.933,5.964 -14.022,12.029 -21.296,18.178c-7.181,6.057 -14.634,11.874 -22.327,17.473c-7.631,5.638 -15.627,9.973 -24.018,13.028c-8.368,3.033 -17.178,4.452 -26.391,4.212c-9.267,-0.148 -19.116,-2.909 -29.593,-8.236c-11.028,-5.7 -19.908,-12.936 -26.632,-21.722c-6.568,-8.849 -10.996,-18.605 -13.269,-29.323c-2.357,-10.725 -2.45,-22.18 -0.333,-34.293c2.094,-12.059 6.367,-24.328 12.819,-36.868c3.909,-7.639 9.57,-16.844 16.992,-27.632c7.421,-10.748 16.355,-21.629 26.84,-32.626l27.748,21.629l-0.031,4.397c-6.235,4.964 -11.935,10.028 -17.084,15.146c-5.15,5.119 -9.694,10.09 -13.634,14.875c-3.994,4.754 -7.422,9.36 -10.206,13.781c-2.846,4.335 -5.149,8.181 -6.879,11.57c-3.575,7.003 -5.932,13.696 -7.057,20.148c-1.179,6.421 -1.179,12.447 0,18.117c1.241,5.544 3.606,10.663 7.119,15.3c3.514,4.537 8.237,8.298 14.146,11.33c7.879,4.056 15.51,5.724 22.932,5.026c7.336,-0.846 14.634,-3.149 21.901,-6.848c7.305,-3.815 14.572,-8.631 21.753,-14.479c7.15,-5.785 14.417,-11.757 21.815,-17.937c7.205,-6.151 14.688,-11.99 22.381,-17.597c7.639,-5.638 15.425,-10.121 23.452,-13.479c8.12,-3.365 16.511,-5.095 25.142,-5.149c8.663,-0.093 17.752,2.327 27.298,7.235c10.478,5.367 19.264,12.727 26.445,22.057c7.12,9.422 12.238,20.085 15.356,31.958c3.001,11.936 3.73,24.747 2.148,38.412c-1.66,13.727 -6.057,27.507 -13.207,41.381c-2.994,5.879 -6.569,11.811 -10.694,17.783c-4.025,5.994 -8.446,11.842 -13.269,17.573c-4.816,5.692 -9.873,11.175 -15.201,16.449c-5.397,5.18 -10.818,9.934 -16.301,14.269l-27.841,-21.846l-0.062,-4.421c13.153,-8.453 24.871,-17.813 35.177,-28.05c10.354,-10.214 18.411,-20.877 24.142,-31.99Zm-49.532,-353.713l210.723,152.466l-22.808,31.541l-210.723,-152.466l-56.527,78.125l-21.327,-22.839l134.746,-186.217l21.326,22.839l-55.41,76.551Zm277.735,-103.454l-36.992,38.629l83.733,80.157l-26.903,28.113l-210.056,-201.03l56.799,-59.373c9.88,-10.299 20.357,-18.419 31.447,-24.359c11.183,-5.848 22.149,-9.423 32.959,-10.726c10.904,-1.303 21.358,-0.387 31.354,2.699c10.09,3.056 19.055,8.329 26.872,15.813c6.879,6.608 12.114,13.998 15.72,22.234c3.637,8.244 6.033,16.751 7.212,25.476c1.124,8.848 1.241,17.751 0.396,26.755c-0.853,8.965 -2.304,17.449 -4.305,25.32l153.708,28.718l-32.231,33.657l-129.713,-32.083Zm-141.174,-61.072l81.948,78.405l44.623,-46.624c1.637,-6.181 2.42,-12.331 2.358,-18.48c-0.085,-6.236 -0.969,-12.269 -2.691,-18.055c-1.636,-5.816 -4.033,-11.361 -7.181,-16.572c-3.032,-5.204 -6.724,-9.904 -11.09,-14.115c-5.483,-5.211 -11.478,-9.151 -17.992,-11.78c-6.607,-2.544 -13.448,-3.544 -20.567,-3.001c-7.181,0.481 -14.572,2.722 -22.117,6.723c-7.515,3.941 -15.022,9.85 -22.599,17.721l-24.692,25.778Zm428.356,-61.521c12.269,-8.996 21.691,-19.753 28.26,-32.231c6.576,-12.362 10.361,-25.507 11.454,-39.505c1.062,-13.998 -0.605,-28.236 -5.002,-42.715c-4.451,-14.572 -11.571,-28.539 -21.327,-41.831c-10.299,-13.967 -21.962,-25.204 -35.014,-33.689c-13.122,-8.546 -26.693,-14.207 -40.653,-17.03c-14.06,-2.877 -28.027,-2.877 -41.87,-0c-13.843,2.908 -26.779,8.756 -38.714,17.542c-12.478,9.151 -21.962,19.993 -28.415,32.51c-6.452,12.625 -10.151,25.925 -10.996,39.861c-1.001,13.936 0.783,28.175 5.304,42.685c4.514,14.479 11.633,28.321 21.296,41.505c10.206,13.905 21.807,25.112 34.805,33.658c12.936,8.445 26.352,14.083 40.257,16.96c13.874,2.784 27.779,2.699 41.684,-0.24c13.936,-2.823 26.903,-8.639 38.931,-17.48Zm12.749,28.655c-14.959,11.028 -31.23,18.845 -48.772,23.506c-17.534,4.793 -35.138,6.034 -52.828,3.73c-17.666,-2.272 -34.782,-8.244 -51.347,-17.844c-16.48,-9.664 -31.176,-23.297 -44.111,-40.862c-8.965,-12.215 -15.929,-24.848 -20.962,-37.962c-4.909,-13.176 -8.089,-26.414 -9.539,-39.714c-1.427,-13.331 -1.187,-26.507 0.752,-39.652c1.939,-13.122 5.514,-25.662 10.756,-37.598c5.15,-11.904 11.757,-23.087 19.846,-33.533c8.057,-10.299 17.534,-19.481 28.415,-27.476c9.725,-7.15 20.078,-12.967 31.106,-17.48c11.121,-4.452 22.451,-7.515 34.053,-9.213c11.756,-1.691 23.536,-1.784 35.41,-0.303c11.787,1.52 23.358,4.607 34.75,9.213c11.3,4.661 22.08,11.09 32.386,19.264c10.446,8.213 20.055,18.302 28.834,30.237c8.848,12.021 15.844,24.623 20.962,37.745c5.157,13.145 8.453,26.383 9.942,39.776c1.512,13.238 1.334,26.383 -0.605,39.35c-1.853,13.083 -5.304,25.568 -10.33,37.504c-5.095,11.966 -11.726,23.141 -19.969,33.595c-8.174,10.423 -17.783,19.659 -28.749,27.717Zm299.877,-352.589c8.244,-1.178 16.48,-1.333 24.723,-0.449c8.329,0.814 16.116,2.753 23.328,5.816c7.205,2.94 13.75,7.058 19.628,12.331c5.817,5.297 10.392,11.842 13.812,19.597c2.699,6.181 4.545,12.998 5.514,20.536c0.938,7.545 0.822,15.394 -0.395,23.568c-1.241,8.088 -3.575,16.239 -6.996,24.452c-3.513,8.267 -8.243,16.293 -14.176,24.11c-6.002,7.725 -13.331,14.968 -21.963,21.723c-8.755,6.786 -18.938,12.726 -30.57,17.845l-68.308,29.958l-116.816,-266.25l74.892,-32.836c14.688,-6.452 28.228,-10.423 40.621,-11.881c12.362,-1.357 23.382,-0.876 33.053,1.396c9.663,2.272 17.806,6.026 24.506,11.268c6.6,5.336 11.509,11.602 14.626,18.783c2.699,6.088 4.126,12.571 4.304,19.543c0.155,6.84 -0.574,13.781 -2.179,20.807c-1.605,7.026 -3.97,13.936 -7.119,20.722c-3.118,6.786 -6.638,13.091 -10.485,18.961Zm-74.55,58.986l42.413,96.669l36.775,-16.147c12.059,-5.305 21.567,-11.268 28.507,-17.999c6.848,-6.662 11.75,-13.603 14.689,-20.807c2.908,-7.089 4.125,-14.208 3.668,-21.327c-0.543,-7.003 -2.148,-13.634 -4.909,-19.877c-3.358,-7.693 -7.848,-13.688 -13.386,-17.961c-5.544,-4.304 -11.997,-7.026 -19.333,-8.181c-7.298,-1.304 -15.355,-1.063 -24.173,0.666c-8.724,1.699 -18.023,4.7 -27.841,8.996l-36.41,15.968Zm-12.362,-28.174l62.561,-27.477c6.056,-9.872 9.996,-19.721 11.811,-29.477c1.908,-9.81 0.876,-19.233 -3.087,-28.291c-5.366,-12.238 -14.634,-19.752 -27.748,-22.536c-13.09,-2.823 -28.996,-0.124 -47.81,8.112l-33.076,14.541l37.349,85.128Zm315.325,-54.744l-51.65,13.905l30.145,111.938l-37.566,10.09l-75.613,-280.729l79.374,-21.358c13.781,-3.731 26.957,-5.242 39.497,-4.545c12.571,0.752 23.816,3.358 33.719,7.872c10.028,4.544 18.512,10.725 25.414,18.511c7.065,7.88 11.997,17.023 14.82,27.477c2.482,9.182 3.118,18.263 1.939,27.174c-1.156,8.903 -3.521,17.418 -7.065,25.538c-3.598,8.089 -8.089,15.781 -13.478,23.056c-5.39,7.235 -10.997,13.719 -16.814,19.442l116.63,104.152l-45.011,12.121l-94.341,-94.644Zm-89.123,-125.323l29.478,109.479l62.313,-16.782c4.606,-4.42 8.484,-9.267 11.57,-14.572c3.211,-5.39 5.545,-10.996 7.088,-16.813c1.606,-5.839 2.428,-11.811 2.428,-17.899c0.124,-6.026 -0.605,-11.966 -2.21,-17.814c-1.939,-7.328 -5.033,-13.78 -9.276,-19.418c-4.296,-5.608 -9.631,-10.028 -16.022,-13.207c-6.39,-3.304 -13.874,-5.212 -22.42,-5.724c-8.445,-0.519 -17.93,0.636 -28.469,3.482l-34.48,9.268Zm438.02,185.34l-166.465,20.536l-35.627,-288.577l169.249,-20.869l-2.087,31.136l-124.78,15.395l11.392,92.27l111.147,-13.718l-2.179,31.292l-105.183,12.997l12.935,104.726l133.777,-16.511l-2.179,31.323Zm247.645,10.508l-24.514,-79.94l-125.315,-4.847l-30.354,77.824l-36.628,-1.397l119.36,-286.367l41.25,1.575l97.04,294.727l-40.839,-1.575Zm-138.166,-114.721l103.896,4.001l-34.068,-114.939l-9.756,-41.017l-3.94,-0.147l-12.873,40.14l-43.259,111.962Zm219.688,126.052l58.102,-284.847l96.304,19.628c25.142,5.118 46.531,13.052 64.135,23.808c17.596,10.819 31.563,23.506 41.8,38.109c10.299,14.479 17,30.447 20.086,47.958c3.094,17.566 2.73,35.566 -1,53.953c-2.451,11.966 -6.267,23.692 -11.478,35.201c-5.243,11.632 -11.788,22.474 -19.659,32.563c-7.973,10.121 -17.24,19.21 -27.841,27.33c-10.547,8.143 -22.39,14.626 -35.565,19.473c-13.27,4.909 -27.842,7.941 -43.717,9.089c-15.75,1.155 -32.772,-0.116 -51.075,-3.847l-90.092,-18.418Zm90.123,-247.041l-45.833,224.652l58.955,12.028c18.752,3.847 35.774,4.18 51.099,1c15.208,-3.179 28.445,-8.965 39.691,-17.325c11.237,-8.453 20.504,-19.147 27.802,-32.02c7.398,-12.874 12.695,-27.206 15.906,-42.926c3.482,-17.092 4.002,-33.052 1.489,-47.833c-2.428,-14.696 -7.724,-27.81 -15.813,-39.381c-8.12,-11.664 -19.031,-21.544 -32.688,-29.663c-13.665,-8.12 -29.904,-14.115 -48.625,-17.931l-51.983,-10.601Zm430.35,354.884l-8.632,21.575c-9.267,3.296 -18.752,5.266 -28.415,5.817c-9.693,0.635 -19.116,0.387 -28.205,-0.761c-9.121,-1.031 -17.628,-2.667 -25.476,-4.909c-7.848,-2.241 -14.665,-4.513 -20.482,-6.847c-17.774,-7.12 -33.106,-16.899 -45.98,-29.416c-12.819,-12.447 -22.567,-26.717 -29.299,-42.801c-6.755,-16.06 -10.113,-33.533 -10.081,-52.409c0.116,-18.876 4.18,-38.318 12.175,-58.319c6.026,-14.99 13.447,-28.291 22.327,-39.924c8.934,-11.508 18.868,-21.264 29.811,-29.229c10.873,-8.119 22.537,-14.517 34.953,-19.178c12.423,-4.669 25.235,-7.693 38.442,-9.027c13.215,-1.365 26.569,-1.094 40.079,0.814c13.517,1.877 26.755,5.421 39.66,10.578c8.476,3.389 18.356,8.267 29.593,14.565c11.331,6.366 22.995,14.238 35.022,23.66l-19.085,29.633l-4.366,0.326c-11.082,-11.54 -21.963,-20.776 -32.657,-27.686c-10.718,-6.902 -20.14,-11.967 -28.291,-15.239c-14.727,-5.871 -29.415,-8.446 -44.111,-7.693c-14.751,0.698 -28.562,4.242 -41.436,10.547c-12.998,6.266 -24.599,14.959 -34.929,26.142c-10.268,11.145 -18.388,24.142 -24.328,38.955c-5.723,14.3 -8.996,29.019 -9.841,44.165c-0.791,15.061 1.085,29.477 5.599,43.259c4.668,13.726 12.152,26.266 22.482,37.628c10.299,11.268 23.684,20.21 40.226,26.809c4.847,1.939 10.268,3.754 16.239,5.452c6.026,1.699 12.634,3.063 19.815,4.002c7.142,0.969 14.874,1.481 23.172,1.605c8.205,0.062 16.875,-0.636 26.019,-2.094Zm162.013,22.389l-45.988,-27.267l-59.103,99.701l-33.471,-19.815l148.256,-250.135l70.672,41.901c12.3,7.267 22.568,15.658 30.843,25.111c8.236,9.539 14.207,19.42 17.899,29.656c3.73,10.33 5.242,20.722 4.49,31.145c-0.698,10.508 -3.823,20.443 -9.337,29.749c-4.847,8.205 -10.904,14.991 -18.086,20.357c-7.204,5.39 -14.928,9.663 -23.203,12.78c-8.329,3.095 -16.991,5.243 -25.933,6.422c-8.965,1.218 -17.503,1.729 -25.654,1.574l6.848,156.197l-40.11,-23.746l1.877,-133.63Zm27.538,-151.287l-57.83,97.513l55.527,32.936c6.39,0.21 12.54,-0.426 18.511,-1.884c6.119,-1.513 11.78,-3.723 16.992,-6.693c5.328,-2.939 10.152,-6.514 14.541,-10.788c4.358,-4.086 8.12,-8.778 11.206,-13.99c3.847,-6.514 6.336,-13.238 7.391,-20.179c1.031,-6.995 0.457,-13.905 -1.691,-20.722c-2.094,-6.871 -5.971,-13.571 -11.578,-20.023c-5.506,-6.422 -12.959,-12.416 -22.35,-17.992l-30.719,-18.178Zm224.109,112.116l30.02,24.754l-114.9,139.322c-9.214,11.144 -15.301,22.296 -18.271,33.378c-3.056,11.183 -3.785,21.816 -2.211,31.928c1.489,10.058 4.847,19.365 10.028,27.872c5.118,8.453 11.33,15.697 18.604,21.691c7.329,6.057 15.418,10.486 24.235,13.27c8.841,2.939 17.814,3.877 26.926,2.783c9.244,-1.085 18.512,-4.265 27.81,-9.507c9.329,-5.305 18.209,-13.06 26.693,-23.359l116.964,-141.803l27.623,22.808l-116.66,141.47c-5.119,6.181 -11.206,11.997 -18.325,17.364c-7.027,5.452 -14.728,10.089 -23.026,13.842c-8.329,3.785 -17.232,6.546 -26.747,8.236c-9.57,1.792 -19.357,2.125 -29.353,1.032c-10.121,-1.055 -20.42,-3.816 -30.928,-8.267c-10.361,-4.42 -20.691,-10.904 -30.998,-19.388c-12.54,-10.33 -22.381,-21.753 -29.624,-34.231c-7.181,-12.572 -11.424,-25.693 -12.75,-39.35c-1.302,-13.664 0.512,-27.756 5.421,-42.204c4.909,-14.323 13.114,-28.477 24.654,-42.444l114.815,-139.197Zm41.017,434.685l-21.777,-27.019l240.162,-165.348l36.659,45.445l-112.876,183.332l-22.599,32.417l2.575,3.179l36.356,-15.324l203.177,-71.433l36.837,45.624l-212.506,199.695l-23.995,-29.748l167.946,-155.468l31.509,-27.392l-2.365,-2.931l-38.264,15.898l-223.838,79.708l-22.055,-27.361l124.354,-202.332l23.816,-34.471l-2.365,-2.94l-32.96,24.933l-187.791,131.536Zm413.203,321.474c1.822,8.12 2.637,16.333 2.427,24.6c-0.178,8.36 -1.481,16.27 -3.94,23.723c-2.388,7.421 -5.963,14.269 -10.756,20.566c-4.816,6.181 -10.966,11.269 -18.442,15.301c-5.94,3.18 -12.602,5.545 -20.024,7.119c-7.429,1.544 -15.269,2.056 -23.513,1.513c-8.151,-0.605 -16.48,-2.303 -24.956,-5.026c-8.515,-2.853 -16.907,-6.94 -25.15,-12.245c-8.174,-5.359 -15.991,-12.082 -23.382,-20.171c-7.484,-8.182 -14.207,-17.845 -20.21,-29.02l-35.317,-65.74l256.13,-137.623l38.682,72.037c7.608,14.114 12.634,27.321 15.061,39.567c2.326,12.207 2.722,23.234 1.241,33.045c-1.52,9.818 -4.607,18.24 -9.299,25.328c-4.792,7.026 -10.64,12.393 -17.542,16.084c-5.847,3.149 -12.237,5.087 -19.148,5.848c-6.816,0.698 -13.78,0.511 -20.931,-0.512c-7.119,-1.031 -14.176,-2.877 -21.21,-5.452c-6.995,-2.606 -13.571,-5.576 -19.721,-8.942Zm-64.733,-69.641l-93,49.982l19.024,35.387c6.235,11.601 12.966,20.566 20.202,26.956c7.213,6.306 14.51,10.633 21.932,12.998c7.305,2.335 14.487,2.97 21.543,1.939c6.933,-1.063 13.417,-3.241 19.42,-6.452c7.39,-3.971 13.02,-8.911 16.836,-14.781c3.854,-5.848 6.065,-12.517 6.638,-19.908c0.699,-7.391 -0.186,-15.386 -2.605,-24.049c-2.366,-8.577 -6.088,-17.573 -11.175,-27.058l-18.815,-35.014Zm27.113,-14.572l32.354,60.196c10.33,5.234 20.45,8.391 30.323,9.414c9.934,1.156 19.264,-0.636 27.957,-5.328c11.757,-6.304 18.512,-16.115 20.241,-29.446c1.784,-13.269 -2.179,-28.926 -11.873,-47.012l-17.116,-31.811l-81.886,43.987Zm-8.725,325.864c2.939,8.151 6.786,15.332 11.54,21.575c4.699,6.15 9.965,10.966 15.812,14.51c5.848,3.544 12.091,5.692 18.721,6.483c6.608,0.667 13.331,-0.217 20.179,-2.698c8.058,-2.909 14.239,-7.298 18.481,-13.115c4.242,-5.793 7.36,-12.547 9.329,-20.21c2.001,-7.662 3.211,-16.084 3.661,-25.266c0.364,-9.174 0.76,-18.504 1.186,-27.988c0.45,-9.392 1.272,-18.814 2.42,-28.268c1.062,-9.414 3.303,-18.232 6.786,-26.445c3.49,-8.205 8.453,-15.596 14.874,-22.203c6.421,-6.692 15.146,-12.059 26.205,-16.053c11.663,-4.242 23.025,-5.817 34.022,-4.731c10.966,1.21 21.14,4.607 30.501,10.245c9.484,5.599 17.937,13.323 25.359,23.141c7.39,9.725 13.479,21.203 18.294,34.441c2.94,8.089 5.817,18.511 8.64,31.269c2.846,12.78 4.723,26.747 5.661,41.893l-34.743,5.576l-3.18,-3.001c0.574,-7.965 0.753,-15.573 0.512,-22.839c-0.24,-7.243 -0.791,-13.936 -1.636,-20.117c-0.76,-6.15 -1.784,-11.788 -3.118,-16.875c-1.241,-4.994 -2.489,-9.299 -3.792,-12.905c-2.691,-7.359 -5.995,-13.665 -9.966,-18.876c-3.908,-5.235 -8.329,-9.36 -13.269,-12.323c-4.909,-2.877 -10.236,-4.637 -16.022,-5.211c-5.723,-0.489 -11.726,0.395 -17.969,2.637c-8.328,3.024 -14.75,7.475 -19.264,13.385c-4.389,5.971 -7.692,12.842 -9.903,20.721c-2.179,7.934 -3.575,16.543 -4.21,25.779c-0.667,9.182 -1.21,18.574 -1.699,28.174c-0.458,9.485 -1.241,18.93 -2.396,28.415c-1.055,9.392 -3.056,18.178 -6.088,26.298c-3.056,8.267 -7.507,15.595 -13.323,21.963c-5.848,6.39 -13.789,11.392 -23.879,15.052c-11.051,4.002 -22.443,5.452 -34.169,4.336c-11.749,-1.187 -23.048,-4.7 -33.898,-10.517c-10.756,-5.901 -20.628,-14.083 -29.593,-24.537c-8.88,-10.601 -16,-23.203 -21.296,-37.868c-2.241,-6.236 -4.157,-12.874 -5.731,-19.962c-1.667,-7.026 -2.939,-14.27 -3.847,-21.66c-0.876,-7.422 -1.45,-14.875 -1.667,-22.328c-0.148,-7.506 0.062,-14.719 0.636,-21.66l34.929,-5.513l3.304,2.97c-2.753,15.394 -3.878,30.322 -3.389,44.84c0.387,14.533 2.722,27.717 6.995,39.466Zm-3321.54,1272.27l65.771,-51.649l-40.629,-118.693l-83.547,-0.24l-11.873,-34.689l310.114,8.181l13.385,39.079l-239.983,196.663l-13.238,-38.652Zm57.287,-170.218l33.688,98.359l94.939,-73.155l34.712,-23.901l-1.272,-3.699l-42.079,2.427l-119.988,-0.031Zm48.136,331.595c3.94,7.693 8.694,14.355 14.177,19.931c5.421,5.483 11.268,9.632 17.511,12.393c6.266,2.784 12.718,4.118 19.419,4.056c6.63,-0.155 13.176,-1.908 19.659,-5.243c7.631,-3.908 13.176,-8.996 16.658,-15.293c3.49,-6.305 5.731,-13.393 6.732,-21.241c0.992,-7.872 1.147,-16.387 0.418,-25.569c-0.814,-9.113 -1.605,-18.419 -2.357,-27.895c-0.729,-9.361 -1.125,-18.814 -1.187,-28.33c-0.116,-9.477 1.001,-18.504 3.397,-27.081c2.42,-8.601 6.421,-16.565 11.966,-23.932c5.514,-7.453 13.51,-13.843 23.956,-19.233c11.028,-5.669 22.087,-8.663 33.145,-8.996c11.028,-0.186 21.537,1.907 31.564,6.328c10.12,4.335 19.45,10.935 28.081,19.721c8.547,8.725 16.061,19.357 22.514,31.866c3.908,7.67 8.088,17.635 12.509,29.935c4.42,12.3 8.057,25.933 10.873,40.831l-33.743,9.942l-3.544,-2.606c-0.396,-7.972 -1.218,-15.541 -2.366,-22.691c-1.179,-7.181 -2.543,-13.75 -4.149,-19.752c-1.512,-6.026 -3.272,-11.478 -5.242,-16.325c-1.846,-4.847 -3.637,-8.942 -5.39,-12.362c-3.575,-6.972 -7.67,-12.788 -12.269,-17.449c-4.513,-4.723 -9.422,-8.244 -14.696,-10.539c-5.273,-2.249 -10.756,-3.304 -16.572,-3.157c-5.755,0.241 -11.602,1.854 -17.473,4.878c-7.879,4.064 -13.695,9.299 -17.426,15.728c-3.598,6.452 -6.025,13.719 -7.235,21.776c-1.156,8.182 -1.458,16.876 -0.908,26.112c0.512,9.213 1.148,18.574 1.877,28.175c0.76,9.484 1.179,18.961 1.241,28.476c0.155,9.485 -0.76,18.419 -2.73,26.872c-1.993,8.601 -5.483,16.418 -10.446,23.475c-5.002,7.057 -12.238,13.06 -21.784,17.938c-10.447,5.389 -21.567,8.267 -33.355,8.631c-11.811,0.272 -23.444,-1.76 -34.922,-6.15c-11.454,-4.513 -22.272,-11.392 -32.478,-20.628c-10.152,-9.361 -18.783,-20.963 -25.903,-34.837c-3.024,-5.909 -5.785,-12.245 -8.205,-19.054c-2.551,-6.786 -4.73,-13.82 -6.545,-21.024c-1.846,-7.275 -3.335,-14.572 -4.513,-21.932c-1.094,-7.422 -1.792,-14.634 -2.125,-21.606l33.991,-9.872l3.637,2.544c-0.791,15.603 -0.031,30.594 2.303,44.925c2.241,14.363 6.212,27.112 11.935,38.264Zm341.072,100.422l-210.723,152.466l-22.808,-31.501l210.723,-152.505l-56.558,-78.126l28.384,-13.114l134.715,186.24l-28.353,13.091l-55.38,-76.551Zm42.204,270.252l-36.961,-38.629l-83.764,80.127l-26.895,-28.113l210.056,-201.029l56.83,59.373c9.873,10.307 17.504,21.149 22.932,32.479c5.359,11.392 8.453,22.536 9.268,33.386c0.814,10.966 -0.512,21.358 -4.056,31.199c-3.521,9.934 -9.182,18.659 -16.999,26.143c-6.879,6.607 -14.51,11.516 -22.901,14.758c-8.392,3.234 -16.961,5.265 -25.779,6.056c-8.848,0.722 -17.751,0.481 -26.724,-0.791c-8.934,-1.24 -17.325,-3.024 -25.111,-5.389l-35.441,152.288l-32.231,-33.689l37.776,-128.169Zm67.19,-138.321l-81.917,78.397l44.623,46.624c6.088,1.907 12.207,2.962 18.356,3.179c6.243,0.179 12.3,-0.426 18.148,-1.877c5.909,-1.395 11.547,-3.544 16.875,-6.483c5.335,-2.761 10.206,-6.274 14.603,-10.454c5.452,-5.242 9.632,-11.059 12.54,-17.449c2.846,-6.483 4.149,-13.269 3.939,-20.419c-0.186,-7.205 -2.093,-14.658 -5.754,-22.382c-3.606,-7.7 -9.182,-15.456 -16.728,-23.358l-24.685,-25.778Zm111.597,402.175c12.269,8.996 25.329,14.781 39.203,17.356c13.757,2.574 27.445,2.272 41.141,-0.877c13.664,-3.148 26.747,-8.996 39.256,-17.542c12.572,-8.569 23.754,-19.535 33.541,-32.835c10.299,-13.998 17.504,-28.508 21.684,-43.476c4.242,-15.083 5.638,-29.717 4.126,-43.894c-1.458,-14.269 -5.607,-27.562 -12.517,-39.924c-6.902,-12.392 -16.325,-22.963 -28.291,-31.749c-12.478,-9.182 -25.631,-14.968 -39.505,-17.387c-13.967,-2.396 -27.779,-1.939 -41.35,1.396c-13.572,3.21 -26.624,9.143 -39.11,17.806c-12.509,8.639 -23.599,19.543 -33.262,32.719c-10.236,13.905 -17.48,28.353 -21.722,43.258c-4.211,14.874 -5.599,29.384 -4.18,43.506c1.489,14.053 5.7,27.291 12.695,39.714c6.848,12.448 16.271,23.08 28.291,31.929Zm-23.568,20.721c-14.959,-10.997 -27.29,-24.142 -36.984,-39.504c-9.818,-15.332 -16.27,-31.781 -19.326,-49.316c-3.094,-17.542 -2.52,-35.658 1.691,-54.317c4.304,-18.635 12.904,-36.744 25.871,-54.348c8.942,-12.176 18.907,-22.598 29.935,-31.292c11.113,-8.663 22.777,-15.634 35.045,-20.993c12.269,-5.336 24.964,-9.027 38.047,-11.121c13.122,-2.055 26.151,-2.358 39.11,-0.969c12.912,1.364 25.537,4.366 37.93,8.941c12.238,4.599 23.839,10.904 34.72,18.931c9.725,7.119 18.387,15.269 25.987,24.475c7.546,9.244 13.874,19.147 18.969,29.749c5.088,10.694 8.725,21.931 10.842,33.657c2.063,11.726 2.575,23.692 1.575,35.93c-1.063,12.175 -3.971,24.413 -8.694,36.682c-4.723,12.392 -11.478,24.568 -20.264,36.534c-8.849,12.028 -18.783,22.451 -29.749,31.292c-11.028,8.818 -22.692,15.937 -35.022,21.358c-12.176,5.398 -24.747,9.12 -37.714,11.183c-13.059,2.117 -25.995,2.544 -38.868,1.334c-12.936,-1.303 -25.631,-4.304 -38.016,-9.035c-12.424,-4.692 -24.088,-11.082 -35.085,-19.171Zm473.523,75.613c6.421,5.266 12.113,11.237 17.053,17.899c5.033,6.669 8.849,13.727 11.54,21.117c2.699,7.298 4.095,14.875 4.211,22.785c0,7.841 -1.691,15.658 -5.087,23.444c-2.691,6.15 -6.484,12.121 -11.393,17.937c-4.87,5.786 -10.748,11.021 -17.565,15.658c-6.786,4.576 -14.394,8.391 -22.754,11.455c-8.453,2.993 -17.565,4.963 -27.352,5.87c-9.725,0.822 -19.993,0.334 -30.842,-1.45c-10.904,-1.846 -22.172,-5.304 -33.805,-10.423l-68.346,-29.958l116.816,-266.25l74.883,32.835c14.696,6.452 26.779,13.727 36.263,21.877c9.361,8.174 16.449,16.596 21.327,25.259c4.847,8.639 7.631,17.178 8.298,25.662c0.551,8.484 -0.752,16.324 -3.877,23.506c-2.66,6.057 -6.484,11.516 -11.478,16.363c-4.94,4.754 -10.547,8.934 -16.782,12.509c-6.274,3.575 -12.936,6.483 -20.055,8.787c-7.119,2.272 -14.146,3.994 -21.055,5.118Zm-93.908,-14.905l-42.413,96.668l36.806,16.146c12.029,5.273 22.87,8.205 32.533,8.756c9.547,0.543 17.969,-0.582 25.267,-3.273c7.181,-2.668 13.238,-6.576 18.147,-11.757c4.816,-5.118 8.569,-10.811 11.33,-17.053c3.358,-7.694 4.754,-15.03 4.149,-22.025c-0.605,-6.995 -2.97,-13.572 -7.088,-19.752c-3.971,-6.236 -9.601,-12.029 -16.844,-17.326c-7.151,-5.304 -15.658,-10.089 -25.476,-14.416l-36.411,-15.968Zm12.355,-28.175l62.591,27.415c11.354,-2.241 21.265,-5.995 29.687,-11.268c8.508,-5.212 14.75,-12.393 18.752,-21.444c5.359,-12.214 4.607,-24.118 -2.241,-35.658c-6.755,-11.54 -19.543,-21.42 -38.357,-29.687l-33.076,-14.479l-37.356,85.121Zm271.128,147.472l-51.619,-13.905l-30.144,111.931l-37.558,-10.113l75.581,-280.76l79.336,21.35c13.781,3.699 25.933,9.034 36.472,15.906c10.485,6.971 18.876,14.905 25.205,23.754c6.367,8.965 10.601,18.566 12.695,28.779c2.117,10.361 1.815,20.745 -1.032,31.199c-2.45,9.182 -6.452,17.325 -11.935,24.475c-5.483,7.12 -11.78,13.3 -18.899,18.543c-7.212,5.211 -14.968,9.601 -23.266,13.145c-8.305,3.575 -16.425,6.367 -24.297,8.391l48.563,148.62l-45.018,-12.114l-34.084,-129.201Zm-14.146,-153.133l-29.477,109.511l62.313,16.751c6.212,-1.513 11.997,-3.754 17.363,-6.786c5.452,-3.063 10.299,-6.724 14.541,-10.997c4.328,-4.273 8.027,-8.996 11.083,-14.269c3.125,-5.15 5.482,-10.664 7.064,-16.511c1.963,-7.298 2.544,-14.448 1.722,-21.443c-0.938,-7.003 -3.327,-13.517 -7.236,-19.481c-3.877,-6.057 -9.36,-11.485 -16.51,-16.177c-7.058,-4.7 -15.844,-8.484 -26.391,-11.3l-34.472,-9.298Zm331.719,322.622l-166.464,-20.535l35.619,-288.578l169.226,20.901l-9.578,29.686l-124.78,-15.386l-11.385,92.24l111.147,13.727l-9.725,29.841l-105.183,-12.966l-12.936,104.726l133.777,16.534l-9.718,29.81Zm281.544,-9.089l-30.594,-77.823l-125.355,4.816l-24.204,79.979l-36.658,1.388l96.908,-294.696l41.265,-1.605l119.477,286.367l-40.839,1.574Zm-146.619,-103.756l103.927,-4.025l-42.824,-111.938l-12.905,-40.133l-3.94,0.148l-9.755,40.986l-34.503,114.962Zm262.07,88.339l-58.133,-284.909l96.273,-19.628c25.173,-5.157 47.95,-6.212 68.369,-3.242c20.451,3.087 38.234,9.298 53.379,18.69c15.146,9.298 27.57,21.389 37.264,36.263c9.725,14.96 16.48,31.626 20.202,50.013c2.458,11.966 3.513,24.297 3.241,36.923c-0.24,12.726 -2.031,25.266 -5.296,37.659c-3.366,12.392 -8.368,24.413 -14.936,36.046c-6.484,11.601 -14.844,22.21 -25.089,31.842c-10.299,9.725 -22.505,18.202 -36.65,25.476c-14.061,7.243 -30.238,12.726 -48.501,16.449l-90.123,18.418Zm-13.874,-262.644l45.833,224.659l58.978,-12.028c18.752,-3.816 34.565,-10.182 47.415,-19.085c12.749,-8.911 22.661,-19.388 29.718,-31.51c7.026,-12.206 11.392,-25.654 13.052,-40.381c1.76,-14.719 1.031,-29.958 -2.179,-45.709c-3.482,-17.084 -9.299,-31.959 -17.388,-44.592c-7.995,-12.54 -17.992,-22.567 -29.989,-30.02c-12.028,-7.546 -25.933,-12.393 -41.684,-14.51c-15.751,-2.094 -33.021,-1.248 -51.773,2.575l-51.983,10.601Zm532.438,48.865l8.632,21.567c-4.452,8.818 -9.934,16.752 -16.565,23.809c-6.577,7.181 -13.541,13.478 -20.908,18.938c-7.36,5.537 -14.626,10.206 -21.839,14.021c-7.243,3.785 -13.75,6.848 -19.566,9.182c-17.759,7.12 -35.596,10.602 -53.565,10.447c-17.868,-0.21 -34.774,-3.785 -50.742,-10.749c-15.96,-7.003 -30.447,-17.333 -43.468,-31.021c-12.935,-13.695 -23.42,-30.571 -31.416,-50.594c-5.994,-14.991 -9.818,-29.749 -11.392,-44.29c-1.481,-14.479 -1.032,-28.415 1.365,-41.715c2.303,-13.386 6.328,-26.05 12.09,-38.016c5.786,-11.966 12.967,-22.994 21.598,-33.076c8.632,-10.089 18.481,-19.116 29.563,-27.057c11.09,-7.965 23.087,-14.541 35.992,-19.691c8.515,-3.42 18.992,-6.693 31.501,-9.903c12.579,-3.211 26.476,-5.545 41.661,-7.026l6.599,34.595l-2.908,3.265c-15.96,-0.721 -30.198,0.093 -42.715,2.49c-12.509,2.419 -22.839,5.235 -30.99,8.476c-14.719,5.91 -27.143,14.208 -37.256,24.871c-10.182,10.725 -17.759,22.816 -22.722,36.263c-5.064,13.486 -7.484,27.81 -7.212,42.987c0.24,15.177 3.334,30.175 9.267,44.988c5.731,14.3 13.517,27.236 23.328,38.775c9.818,11.455 21.148,20.567 33.928,27.446c12.843,6.693 26.934,10.601 42.235,11.726c15.2,1.062 31.075,-1.761 47.617,-8.36c4.877,-1.939 10.027,-4.366 15.51,-7.275c5.545,-2.908 11.268,-6.514 17.085,-10.756c5.847,-4.234 11.818,-9.205 17.875,-14.843c6.026,-5.631 11.788,-12.114 17.418,-19.474Zm110.969,-141.02l-45.988,27.268l59.102,99.692l-33.471,19.846l-148.263,-250.135l70.68,-41.87c12.3,-7.298 24.568,-12.3 36.868,-15.022c12.3,-2.637 23.84,-3.118 34.596,-1.458c10.842,1.698 20.691,5.366 29.446,10.997c8.903,5.7 16.115,13.183 21.629,22.513c4.87,8.174 7.934,16.72 9.206,25.623c1.24,8.911 1.272,17.752 0.062,26.476c-1.303,8.818 -3.575,17.426 -6.817,25.84c-3.242,8.453 -6.91,16.209 -10.966,23.266l140.353,68.982l-40.11,23.777l-116.327,-65.795Zm-119.507,-96.784l57.83,97.544l55.496,-32.897c3.242,-5.514 5.661,-11.214 7.235,-17.147c1.637,-6.064 2.397,-12.09 2.304,-18.116c-0.031,-6.095 -0.845,-12.028 -2.481,-17.906c-1.513,-5.848 -3.816,-11.362 -6.911,-16.604c-3.846,-6.483 -8.569,-11.873 -14.145,-16.146c-5.661,-4.266 -11.997,-7.088 -18.992,-8.446c-7.026,-1.458 -14.751,-1.303 -23.118,0.512c-8.299,1.76 -17.116,5.452 -26.508,10.997l-30.71,18.209Zm145.952,-131.931l30.02,-24.778l114.87,139.314c9.213,11.183 19,19.272 29.299,24.297c10.392,5.119 20.69,7.879 30.927,8.275c10.183,0.419 19.931,-1.094 29.291,-4.576c9.276,-3.396 17.543,-8.119 24.817,-14.122c7.329,-6.057 13.238,-13.145 17.659,-21.264c4.544,-8.12 7.181,-16.752 7.848,-25.903c0.698,-9.267 -0.667,-18.992 -4.064,-29.136c-3.389,-10.12 -9.329,-20.357 -17.845,-30.633l-116.932,-141.803l27.663,-22.808l116.661,141.47c5.118,6.212 9.632,13.3 13.571,21.296c4.025,7.941 7.089,16.363 9.205,25.266c2.126,8.872 3.126,18.147 3.002,27.81c-0.093,9.756 -1.605,19.419 -4.576,28.989c-3.001,9.756 -7.662,19.326 -13.998,28.81c-6.328,9.33 -14.657,18.24 -24.956,26.717c-12.548,10.361 -25.6,17.875 -39.264,22.598c-13.688,4.669 -27.384,6.305 -41.048,5.002c-13.665,-1.303 -27.113,-5.754 -40.382,-13.331c-13.113,-7.538 -25.444,-18.294 -36.984,-32.292l-114.784,-139.198Zm440.92,-16.27l-21.808,26.996l-212.391,-199.758l36.628,-45.445l203.085,71.557l36.472,15.208l2.544,-3.149l-22.653,-32.323l-112.814,-183.457l36.837,-45.654l240.076,165.464l-23.994,29.749l-187.458,-131.264l-33.44,-24.995l-2.365,2.939l23.66,33.991l125.2,201.937l-22.048,27.352l-224.054,-78.761l-38.745,-15.96l-2.366,2.931l31.354,26.903l168.28,155.739Zm152.14,-505.869c5.755,-6.003 12.145,-11.214 19.171,-15.604c7.058,-4.451 14.394,-7.724 21.963,-9.818c7.483,-2.117 15.177,-2.908 23.056,-2.357c7.817,0.605 15.479,2.908 22.963,6.933c5.909,3.18 11.571,7.422 16.992,12.757c5.366,5.328 10.12,11.602 14.207,18.783c4.002,7.119 7.213,14.991 9.609,23.568c2.295,8.663 3.544,17.899 3.66,27.717c0.062,9.787 -1.241,19.993 -3.908,30.656c-2.691,10.726 -7.027,21.691 -13.021,32.867l-35.325,65.74l-256.13,-137.623l38.683,-72.007c7.6,-14.153 15.813,-25.631 24.684,-34.417c8.911,-8.694 17.845,-15.084 26.872,-19.264c9.027,-4.149 17.752,-6.243 26.236,-6.243c8.515,0.124 16.239,2.063 23.141,5.755c5.817,3.125 10.966,7.39 15.394,12.726c4.359,5.304 8.089,11.237 11.145,17.751c3.063,6.515 5.451,13.417 7.15,20.691c1.698,7.267 2.846,14.386 3.458,21.389Zm-22.326,92.426l92.968,49.951l19.024,-35.41c6.212,-11.571 9.996,-22.149 11.33,-31.719c1.272,-9.484 0.845,-17.969 -1.272,-25.476c-2.063,-7.359 -5.514,-13.695 -10.268,-19.023c-4.731,-5.181 -10.089,-9.392 -16.092,-12.633c-7.422,-3.971 -14.626,-5.941 -21.629,-5.879c-7.026,0.031 -13.781,1.846 -20.264,5.483c-6.546,3.482 -12.726,8.601 -18.597,15.418c-5.847,6.723 -11.299,14.812 -16.394,24.265l-18.806,35.023Zm-27.144,-14.603l32.347,-60.165c-1.326,-11.508 -4.296,-21.691 -8.872,-30.508c-4.544,-8.903 -11.175,-15.689 -19.899,-20.381c-11.757,-6.305 -23.662,-6.514 -35.721,-0.613c-12.059,5.817 -22.901,17.783 -32.626,35.868l-17.115,31.812l81.886,43.987Zm247.948,-213.756c2.939,-8.143 4.607,-16.146 4.941,-23.955c0.333,-7.732 -0.605,-14.82 -2.847,-21.304c-2.21,-6.452 -5.638,-12.113 -10.244,-16.929c-4.63,-4.754 -10.353,-8.391 -17.201,-10.873c-8.089,-2.908 -15.604,-3.521 -22.568,-1.761c-7.003,1.73 -13.695,4.909 -20.147,9.516c-6.453,4.63 -12.758,10.33 -18.993,17.116c-6.15,6.785 -12.424,13.719 -18.814,20.714c-6.39,6.91 -13.06,13.633 -19.962,20.148c-6.848,6.576 -14.238,11.873 -22.18,15.967c-7.902,4.057 -16.479,6.569 -25.623,7.508c-9.244,1.031 -19.356,-0.45 -30.415,-4.452c-11.664,-4.211 -21.389,-10.268 -29.144,-18.147c-7.662,-7.934 -13.269,-17.054 -16.876,-27.414c-3.691,-10.361 -5.242,-21.692 -4.66,-33.991c0.543,-12.207 3.21,-24.926 8.026,-38.195c2.908,-8.057 7.391,-17.906 13.354,-29.539c6.034,-11.633 13.518,-23.537 22.514,-35.775l30.26,17.961l0.512,4.367c-5.537,5.723 -10.57,11.446 -15.021,17.177c-4.452,5.724 -8.329,11.237 -11.602,16.472c-3.397,5.243 -6.181,10.245 -8.422,14.999c-2.273,4.637 -4.056,8.755 -5.359,12.33c-2.668,7.391 -4.157,14.332 -4.428,20.87c-0.396,6.514 0.364,12.516 2.272,17.968c1.939,5.359 4.909,10.113 8.965,14.27c4.095,4.056 9.244,7.204 15.487,9.477c8.329,3.001 16.115,3.699 23.382,2.062c7.181,-1.76 14.145,-4.971 20.877,-9.57c6.754,-4.668 13.323,-10.391 19.744,-17.092c6.367,-6.63 12.82,-13.478 19.365,-20.535c6.39,-7.027 13.052,-13.781 19.993,-20.296c6.847,-6.576 14.021,-11.997 21.536,-16.332c7.662,-4.39 15.75,-7.15 24.297,-8.298c8.569,-1.179 17.899,0.062 27.988,3.722c11.059,4.002 20.722,10.183 29.02,18.543c8.244,8.453 14.696,18.387 19.302,29.78c4.483,11.446 6.817,24.049 6.995,37.806c0.032,13.812 -2.574,28.051 -7.902,42.716c-2.249,6.235 -5.033,12.571 -8.368,18.992c-3.241,6.483 -6.871,12.843 -10.935,19.116c-4.055,6.267 -8.39,12.362 -13.02,18.233c-4.669,5.816 -9.485,11.245 -14.363,16.208l-30.353,-18.116l-0.637,-4.389c11.998,-10.09 22.413,-20.815 31.355,-32.293c8.996,-11.423 15.626,-23.025 19.899,-34.782Zm-3615.24,-612.867c0,-62.189 50.409,-112.597 112.605,-112.597c62.189,-0 112.597,50.408 112.597,112.597c0,62.204 -50.408,112.574 -112.597,112.574c-62.196,0 -112.605,-50.37 -112.605,-112.574Zm3527.78,0c-0,-62.189 50.408,-112.597 112.597,-112.597c62.196,-0 112.605,50.408 112.605,112.597c-0,62.204 -50.409,112.574 -112.605,112.574c-62.189,0 -112.597,-50.37 -112.597,-112.574Z" style="fill:#374151;fill-rule:nonzero;"/></g></svg>