<svg xmlns="http://www.w3.org/2000/svg" version="1.1" xmlns:xlink="http://www.w3.org/1999/xlink" xmlns:svgjs="http://svgjs.dev/svgjs" width="1000" height="707" viewBox="0 0 1000 707"><g transform="matrix(1,0,0,1,-0.6060606060606233,0)"><svg viewBox="0 0 396 280" data-background-color="#ffbe79" preserveAspectRatio="xMidYMid meet" height="707" width="1000" xmlns="http://www.w3.org/2000/svg" xmlns:xlink="http://www.w3.org/1999/xlink"><g id="tight-bounds" transform="matrix(1,0,0,1,0.2400000000000091,0)"><svg viewBox="0 0 395.52 280" height="280" width="395.52"><g><svg viewBox="0 0 395.52 280" height="280" width="395.52"><g><svg viewBox="0 0 395.52 280" height="280" width="395.52"><g><svg viewBox="0 0 395.52 280" height="280" width="395.52"><g><svg viewBox="0 0 395.52 280" height="280" width="395.52"><g transform="matrix(1,0,0,1,119.63173079168112,74.00336708925556)"><svg viewBox="0 0 156.25653841663774 131.99326582148888" height="131.99326582148888" width="156.25653841663774"><g><svg xmlns="http://www.w3.org/2000/svg" xmlns:xlink="http://www.w3.org/1999/xlink" version="1.1" x="0" y="0" viewBox="0 7.763999938964844 100.0009994506836 84.4729995727539" enable-background="new 0 0 100 100" xml:space="preserve" width="156.25653841663774" height="131.99326582148888" class="icon-o-0" data-fill-palette-color="accent" id="o-0"><g fill="#eee" data-fill-palette-color="accent"><path d="M92.858 7.764H61.91c-2.197 0-3.557 1.106-5.447 2.573L4.861 50.295C1.623 52.585 0 55.225 0 58.075c0 3.945 3.198 7.144 7.144 7.144v27.018h39.178l46.537-43.169V22.051c3.942 0 7.142-3.199 7.142-7.145C100 10.962 96.801 7.764 92.858 7.764zM43.578 65.219v24.274H9.886V65.219c0-1.515-1.228-2.743-2.742-2.743-2.427 0-4.4-1.974-4.4-4.4 0-2.426 1.974-4.4 4.4-4.4h39.178c2.425 0 4.398 1.975 4.398 4.4 0 2.427-1.974 4.4-4.398 4.4C44.807 62.476 43.578 63.704 43.578 65.219z" fill="#eee" data-fill-palette-color="accent"></path><circle cx="18.875" cy="60.21" r="0.63" fill="#eee" data-fill-palette-color="accent"></circle><circle cx="21.625" cy="73.085" r="0.88" fill="#eee" data-fill-palette-color="accent"></circle><circle cx="32.875" cy="65.46" r="0.88" fill="#eee" data-fill-palette-color="accent"></circle><circle cx="33.125" cy="84.085" r="1.1" fill="#eee" data-fill-palette-color="accent"></circle><circle cx="14.062" cy="83.522" r="0.56" fill="#eee" data-fill-palette-color="accent"></circle><circle cx="10.125" cy="58.71" r="0.88" fill="#eee" data-fill-palette-color="accent"></circle><circle cx="37.25" cy="56.46" r="0.63" fill="#eee" data-fill-palette-color="accent"></circle></g></svg></g></svg></g><path d="M86.047 95.888L79.946 95.926 76.982 104.583 81.786 108.333 80.919 110.864 63.408 96.524 64.384 93.674 87.013 93.067ZM75.133 103.14L77.591 95.961 68.845 95.936 65.775 95.759 65.683 96.029 68.217 97.771ZM89.4 84.373V84.373C89.689 83.81 89.882 83.247 89.98 82.685 90.074 82.128 90.07 81.606 89.969 81.118 89.868 80.629 89.673 80.189 89.385 79.796 89.093 79.409 88.712 79.095 88.239 78.852V78.852C87.682 78.566 87.143 78.454 86.621 78.515 86.1 78.577 85.585 78.745 85.077 79.019 84.568 79.294 84.058 79.648 83.544 80.081 83.037 80.517 82.52 80.959 81.991 81.407 81.466 81.849 80.922 82.274 80.361 82.683 79.805 83.094 79.222 83.41 78.61 83.632 77.999 83.854 77.357 83.957 76.684 83.941 76.008 83.93 75.289 83.729 74.525 83.338V83.338C73.72 82.924 73.072 82.396 72.583 81.755 72.102 81.11 71.78 80.397 71.614 79.616 71.443 78.832 71.435 77.997 71.591 77.113 71.743 76.234 72.054 75.338 72.524 74.423V74.423C72.81 73.866 73.224 73.195 73.765 72.409 74.306 71.623 74.958 70.829 75.722 70.027V70.027L77.747 71.606 77.744 71.926C77.289 72.289 76.874 72.658 76.499 73.031 76.123 73.405 75.792 73.767 75.505 74.117 75.212 74.464 74.963 74.799 74.759 75.123 74.552 75.438 74.384 75.719 74.257 75.967V75.967C73.996 76.476 73.824 76.966 73.743 77.437 73.656 77.905 73.656 78.345 73.743 78.757 73.833 79.163 74.006 79.535 74.261 79.873 74.519 80.204 74.863 80.48 75.293 80.701V80.701C75.869 80.997 76.426 81.118 76.966 81.066 77.502 81.005 78.035 80.838 78.565 80.567 79.098 80.289 79.627 79.937 80.152 79.511 80.674 79.09 81.204 78.654 81.742 78.203 82.27 77.755 82.815 77.327 83.377 76.919 83.933 76.507 84.502 76.18 85.087 75.936 85.68 75.69 86.292 75.564 86.922 75.559 87.553 75.553 88.216 75.729 88.913 76.087V76.087C89.676 76.479 90.319 77.015 90.841 77.697 91.361 78.384 91.735 79.162 91.963 80.029 92.182 80.899 92.234 81.833 92.12 82.831 91.997 83.831 91.676 84.837 91.156 85.849V85.849C90.936 86.279 90.675 86.711 90.375 87.147 90.081 87.585 89.759 88.012 89.407 88.429 89.055 88.845 88.686 89.245 88.298 89.628 87.904 90.007 87.508 90.354 87.109 90.67V90.67L85.079 89.077 85.074 88.753C86.033 88.136 86.889 87.454 87.639 86.706 88.396 85.962 88.983 85.185 89.4 84.373ZM85.788 58.568L101.161 69.692 99.497 71.992 84.124 60.869 79.999 66.569 78.444 64.902 88.274 51.317 89.829 52.983ZM106.048 51.021L103.351 53.84 109.46 59.686 107.497 61.737 92.172 47.072 96.317 42.74C97.037 41.988 97.802 41.396 98.611 40.964 99.425 40.536 100.226 40.276 101.014 40.181 101.811 40.087 102.573 40.152 103.301 40.377 104.038 40.601 104.691 40.986 105.262 41.532V41.532C105.764 42.013 106.146 42.553 106.41 43.154 106.674 43.755 106.849 44.375 106.935 45.013 107.016 45.657 107.026 46.307 106.963 46.963 106.901 47.619 106.796 48.236 106.65 48.812V48.812L117.863 50.906 115.512 53.363ZM95.751 46.567L101.728 52.286 104.983 48.885C105.103 48.434 105.161 47.985 105.156 47.537 105.15 47.08 105.085 46.641 104.96 46.22 104.84 45.794 104.665 45.391 104.436 45.011 104.215 44.63 103.945 44.287 103.626 43.981V43.981C103.227 43.6 102.79 43.313 102.314 43.121 101.833 42.935 101.333 42.861 100.814 42.902 100.29 42.937 99.751 43.101 99.199 43.392 98.652 43.679 98.103 44.11 97.552 44.685V44.685ZM127.001 42.077V42.077C127.895 41.42 128.582 40.636 129.062 39.725 129.541 38.824 129.819 37.864 129.897 36.843 129.975 35.823 129.854 34.784 129.533 33.727 129.208 32.664 128.689 31.647 127.976 30.676V30.676C127.226 29.656 126.374 28.837 125.422 28.219 124.465 27.595 123.476 27.181 122.456 26.976 121.431 26.766 120.413 26.767 119.402 26.977 118.391 27.188 117.449 27.614 116.577 28.255V28.255C115.666 28.924 114.975 29.715 114.505 30.627 114.033 31.548 113.765 32.518 113.702 33.536 113.63 34.552 113.759 35.59 114.089 36.649 114.419 37.707 114.937 38.716 115.642 39.677V39.677C116.388 40.692 117.235 41.51 118.182 42.132 119.125 42.749 120.104 43.161 121.12 43.37 122.131 43.573 123.145 43.567 124.161 43.352 125.176 43.147 126.123 42.722 127.001 42.077ZM127.93 44.169V44.169C126.838 44.972 125.653 45.543 124.373 45.883 123.093 46.233 121.808 46.324 120.518 46.156 119.229 45.989 117.98 45.554 116.773 44.853 115.57 44.149 114.497 43.154 113.554 41.871V41.871C112.901 40.982 112.391 40.059 112.026 39.102 111.667 38.141 111.434 37.176 111.329 36.205 111.224 35.234 111.243 34.271 111.384 33.313 111.525 32.356 111.787 31.441 112.169 30.569 112.545 29.702 113.027 28.886 113.616 28.124 114.203 27.371 114.895 26.703 115.69 26.118V26.118C116.398 25.598 117.155 25.173 117.96 24.843 118.769 24.519 119.597 24.295 120.444 24.171 121.301 24.048 122.161 24.041 123.026 24.149 123.886 24.261 124.731 24.485 125.561 24.821 126.385 25.161 127.173 25.63 127.925 26.227 128.686 26.825 129.387 27.561 130.028 28.433V28.433C130.673 29.311 131.183 30.229 131.557 31.187 131.932 32.145 132.174 33.112 132.283 34.088 132.393 35.055 132.379 36.012 132.239 36.96 132.103 37.913 131.851 38.825 131.485 39.694 131.113 40.567 130.628 41.384 130.029 42.145 129.431 42.906 128.731 43.581 127.93 44.169ZM149.808 18.445V18.445C150.41 18.359 151.011 18.348 151.611 18.412 152.218 18.473 152.786 18.614 153.314 18.836 153.84 19.051 154.317 19.351 154.746 19.736 155.169 20.123 155.504 20.6 155.753 21.167V21.167C155.95 21.616 156.084 22.115 156.154 22.665 156.224 23.214 156.215 23.787 156.127 24.383 156.036 24.973 155.866 25.568 155.616 26.168 155.36 26.771 155.015 27.357 154.581 27.927 154.144 28.49 153.61 29.018 152.979 29.511 152.341 30.006 151.598 30.44 150.75 30.812V30.812L145.766 32.999 137.244 13.574 142.706 11.178C143.778 10.708 144.767 10.419 145.671 10.312 146.572 10.214 147.376 10.248 148.081 10.415 148.786 10.581 149.382 10.855 149.869 11.236 150.352 11.626 150.709 12.083 150.938 12.607V12.607C151.133 13.05 151.237 13.524 151.251 14.031 151.262 14.532 151.209 15.038 151.092 15.551 150.975 16.063 150.802 16.566 150.573 17.061 150.344 17.556 150.089 18.017 149.808 18.445ZM144.369 22.749L147.463 29.801 150.147 28.623C151.026 28.237 151.719 27.8 152.225 27.31 152.725 26.823 153.083 26.317 153.298 25.791 153.51 25.274 153.599 24.756 153.564 24.236 153.526 23.725 153.407 23.241 153.207 22.786V22.786C152.961 22.225 152.635 21.788 152.23 21.475 151.825 21.162 151.355 20.963 150.82 20.878 150.288 20.784 149.7 20.801 149.057 20.927 148.419 21.05 147.742 21.269 147.025 21.584V21.584ZM143.467 20.692L148.031 18.689C148.472 17.968 148.76 17.25 148.893 16.538 149.033 15.822 148.958 15.134 148.668 14.473V14.473C148.277 13.581 147.601 13.034 146.642 12.83 145.689 12.624 144.527 12.821 143.155 13.423V13.423L140.742 14.482ZM166.471 16.7L162.704 17.714 164.902 25.879 162.161 26.617 156.646 6.135 162.435 4.577C163.441 4.306 164.402 4.195 165.317 4.245 166.235 4.301 167.055 4.492 167.778 4.82 168.509 5.152 169.127 5.602 169.633 6.171 170.147 6.745 170.507 7.413 170.712 8.176V8.176C170.893 8.846 170.94 9.507 170.854 10.157 170.769 10.808 170.597 11.429 170.34 12.02 170.077 12.612 169.748 13.173 169.355 13.702 168.962 14.231 168.553 14.704 168.13 15.122V15.122L176.637 22.72 173.354 23.604ZM159.969 7.557L162.12 15.544 166.666 14.32C167.002 13.997 167.284 13.643 167.511 13.257 167.744 12.863 167.915 12.454 168.027 12.029 168.145 11.603 168.204 11.167 168.204 10.723 168.212 10.283 168.159 9.85 168.044 9.423V9.423C167.901 8.89 167.675 8.419 167.367 8.008 167.053 7.599 166.663 7.277 166.198 7.043 165.731 6.802 165.186 6.663 164.563 6.627 163.946 6.588 163.253 6.672 162.484 6.88V6.88ZM191.924 21.077L179.781 22.576 177.182 1.524 189.528 0 189.376 2.272 180.274 3.396 181.105 10.126 189.214 9.125 189.053 11.409 181.38 12.356 182.324 19.998 192.084 18.793ZM209.991 21.845L208.203 16.012 199.06 15.658 196.847 21.337 194.174 21.234 202.881 0.343 205.891 0.459 212.971 21.96ZM199.911 13.474L207.493 13.766 205.006 5.382 204.294 2.39 204.008 2.379 203.067 5.307ZM215.938 22.672L220.178 1.889 227.203 3.322C229.038 3.696 230.598 4.275 231.883 5.059 233.167 5.849 234.184 6.775 234.933 7.839 235.683 8.895 236.171 10.061 236.397 11.337 236.622 12.62 236.597 13.932 236.324 15.273V15.273C236.145 16.147 235.866 17.003 235.487 17.843 235.105 18.69 234.628 19.482 234.053 20.219 233.472 20.955 232.795 21.62 232.021 22.212 231.253 22.806 230.389 23.279 229.427 23.632 228.458 23.99 227.395 24.211 226.238 24.295 225.088 24.38 223.846 24.286 222.512 24.014V24.014ZM222.513 4.648L219.169 21.038 223.471 21.916C224.839 22.195 226.081 22.22 227.199 21.989 228.309 21.757 229.274 21.335 230.094 20.724 230.915 20.107 231.591 19.328 232.124 18.387 232.663 17.448 233.049 16.404 233.283 15.257V15.257C233.538 14.009 233.574 12.846 233.391 11.766 233.214 10.695 232.829 9.737 232.237 8.894 231.646 8.043 230.851 7.322 229.854 6.729 228.856 6.137 227.673 5.701 226.306 5.422V5.422ZM253.91 30.538L253.28 32.112C252.603 32.354 251.912 32.496 251.207 32.536 250.499 32.582 249.813 32.565 249.149 32.482 248.483 32.406 247.863 32.286 247.291 32.123 246.718 31.96 246.22 31.794 245.796 31.624V31.624C244.5 31.105 243.382 30.39 242.442 29.478 241.508 28.569 240.795 27.528 240.304 26.356 239.812 25.184 239.567 23.909 239.569 22.531 239.577 21.155 239.873 19.737 240.458 18.277V18.277C240.896 17.184 241.438 16.213 242.086 15.365 242.737 14.525 243.462 13.814 244.26 13.232 245.054 12.64 245.904 12.174 246.811 11.833 247.717 11.492 248.652 11.272 249.616 11.174 250.579 11.075 251.554 11.095 252.54 11.233 253.526 11.371 254.49 11.629 255.432 12.006V12.006C256.052 12.254 256.771 12.608 257.592 13.069 258.419 13.532 259.27 14.107 260.146 14.795V14.795L258.753 16.955 258.435 16.981C257.628 16.138 256.834 15.464 256.053 14.961 255.272 14.457 254.584 14.087 253.99 13.849V13.849C252.916 13.419 251.843 13.231 250.772 13.287 249.695 13.339 248.687 13.596 247.747 14.056 246.801 14.513 245.953 15.149 245.201 15.963 244.45 16.777 243.858 17.724 243.426 18.805V18.805C243.008 19.848 242.769 20.922 242.708 22.027 242.649 23.126 242.786 24.178 243.116 25.183 243.456 26.184 244.003 27.1 244.756 27.929 245.506 28.75 246.484 29.402 247.691 29.885V29.885C248.045 30.027 248.44 30.159 248.875 30.282 249.316 30.407 249.797 30.505 250.32 30.575 250.842 30.644 251.406 30.683 252.011 30.691 252.61 30.696 253.243 30.645 253.91 30.538ZM265.73 32.172L262.374 30.183 258.063 37.457 255.62 36.01 266.436 17.762 271.593 20.819C272.489 21.35 273.239 21.961 273.843 22.651 274.443 23.347 274.879 24.068 275.149 24.814 275.421 25.569 275.531 26.327 275.476 27.086 275.424 27.854 275.197 28.578 274.794 29.258V29.258C274.44 29.855 274 30.35 273.475 30.743 272.949 31.136 272.385 31.447 271.783 31.675 271.174 31.9 270.543 32.057 269.89 32.144 269.237 32.232 268.613 32.27 268.018 32.258V32.258L268.517 43.654 265.592 41.92ZM267.738 21.134L263.52 28.25 267.57 30.651C268.036 30.666 268.486 30.62 268.921 30.514 269.366 30.405 269.779 30.242 270.161 30.025 270.548 29.812 270.901 29.55 271.22 29.24 271.54 28.94 271.813 28.599 272.039 28.218V28.218C272.32 27.744 272.5 27.253 272.579 26.746 272.652 26.235 272.611 25.732 272.454 25.235 272.301 24.733 272.019 24.245 271.611 23.774 271.207 23.305 270.663 22.868 269.978 22.462V22.462ZM284.087 29.314L286.277 31.12 277.895 41.284C277.223 42.098 276.779 42.91 276.562 43.719 276.34 44.534 276.286 45.31 276.401 46.049 276.51 46.783 276.754 47.461 277.133 48.082 277.507 48.699 277.959 49.227 278.489 49.664V49.664C279.025 50.106 279.615 50.429 280.258 50.633 280.903 50.847 281.557 50.915 282.222 50.836 282.896 50.757 283.573 50.525 284.252 50.141 284.931 49.756 285.58 49.189 286.199 48.438V48.438L294.731 38.092 296.748 39.756 288.236 50.077C287.863 50.529 287.418 50.952 286.899 51.345 286.386 51.742 285.826 52.079 285.219 52.355 284.612 52.631 283.961 52.831 283.267 52.956 282.569 53.086 281.855 53.111 281.127 53.031 280.389 52.952 279.637 52.751 278.871 52.428 278.114 52.104 277.36 51.632 276.609 51.013V51.013C275.695 50.259 274.975 49.426 274.447 48.515 273.923 47.598 273.614 46.641 273.518 45.644 273.422 44.647 273.554 43.621 273.912 42.566 274.271 41.521 274.87 40.489 275.711 39.47V39.47ZM287.081 61.026L285.491 59.055 303.013 46.992 305.687 50.307 297.452 63.683 295.804 66.048 295.99 66.279 298.644 65.161 313.466 59.949 316.153 63.279 300.65 77.846 298.899 75.676 311.152 64.335 313.45 62.336 313.277 62.122 310.487 63.283 294.156 69.097 292.547 67.102 301.621 52.341 303.357 49.825 303.184 49.611 300.781 51.431ZM317.225 84.479V84.479C317.358 85.072 317.417 85.67 317.401 86.274 317.388 86.883 317.293 87.46 317.114 88.005 316.941 88.546 316.68 89.046 316.331 89.504 315.978 89.956 315.529 90.328 314.984 90.622V90.622C314.552 90.854 314.065 91.026 313.523 91.14 312.981 91.253 312.41 91.29 311.808 91.25 311.213 91.206 310.606 91.084 309.988 90.883 309.367 90.676 308.755 90.378 308.152 89.991 307.556 89.6 306.987 89.11 306.446 88.519 305.901 87.923 305.41 87.217 304.972 86.402V86.402L302.395 81.607 321.081 71.567 323.904 76.821C324.458 77.852 324.825 78.815 325.003 79.708 325.172 80.599 325.202 81.402 325.092 82.118 324.982 82.834 324.757 83.45 324.415 83.966 324.065 84.479 323.638 84.87 323.134 85.141V85.141C322.708 85.37 322.243 85.512 321.739 85.566 321.241 85.617 320.732 85.605 320.212 85.529 319.692 85.453 319.176 85.32 318.665 85.131 318.154 84.942 317.674 84.724 317.225 84.479ZM312.502 79.399L305.718 83.044 307.106 85.626C307.56 86.472 308.051 87.127 308.58 87.593 309.105 88.053 309.638 88.369 310.18 88.542 310.712 88.712 311.235 88.759 311.751 88.683 312.257 88.605 312.73 88.447 313.167 88.212V88.212C313.707 87.922 314.117 87.563 314.397 87.134 314.677 86.706 314.838 86.221 314.88 85.681 314.931 85.143 314.868 84.559 314.691 83.927 314.517 83.302 314.245 82.644 313.874 81.954V81.954ZM314.481 78.336L316.84 82.726C317.594 83.109 318.332 83.339 319.053 83.415 319.778 83.497 320.458 83.368 321.093 83.026V83.026C321.951 82.565 322.443 81.849 322.57 80.876 322.7 79.91 322.411 78.767 321.702 77.448V77.448L320.454 75.126ZM313.843 102.108V102.108C314.059 102.704 314.339 103.228 314.685 103.682 315.028 104.13 315.413 104.483 315.84 104.741 316.266 105 316.722 105.157 317.205 105.213 317.687 105.263 318.177 105.198 318.677 105.017V105.017C319.266 104.804 319.715 104.485 320.025 104.061 320.335 103.638 320.563 103.146 320.707 102.587 320.852 102.027 320.941 101.412 320.973 100.742 320.999 100.073 321.028 99.393 321.059 98.701 321.093 98.015 321.152 97.328 321.236 96.639 321.313 95.952 321.478 95.309 321.732 94.71 321.986 94.111 322.347 93.571 322.817 93.089 323.285 92.601 323.922 92.211 324.729 91.919V91.919C325.58 91.61 326.407 91.495 327.211 91.574 328.01 91.661 328.752 91.91 329.436 92.321 330.128 92.729 330.744 93.292 331.286 94.008 331.825 94.718 332.27 95.556 332.621 96.522V96.522C332.834 97.111 333.044 97.872 333.251 98.803 333.458 99.735 333.596 100.753 333.663 101.858V101.858L331.128 102.266 330.896 102.046C330.939 101.466 330.952 100.911 330.934 100.381 330.916 99.852 330.876 99.363 330.815 98.914 330.76 98.464 330.684 98.053 330.586 97.683 330.497 97.317 330.405 97.003 330.31 96.74V96.74C330.115 96.203 329.873 95.744 329.583 95.363 329.299 94.981 328.977 94.681 328.616 94.464 328.258 94.254 327.868 94.127 327.447 94.084 327.028 94.048 326.591 94.112 326.137 94.276V94.276C325.529 94.497 325.06 94.822 324.731 95.253 324.41 95.688 324.169 96.191 324.007 96.764 323.848 97.343 323.746 97.971 323.701 98.646 323.653 99.315 323.612 100 323.576 100.7 323.544 101.393 323.487 102.083 323.403 102.773 323.326 103.459 323.178 104.1 322.959 104.693 322.735 105.296 322.411 105.83 321.986 106.295 321.56 106.76 320.98 107.126 320.244 107.393V107.393C319.437 107.685 318.606 107.791 317.751 107.709 316.894 107.622 316.07 107.366 315.279 106.943 314.493 106.511 313.773 105.914 313.12 105.151 312.472 104.379 311.953 103.459 311.566 102.39V102.39C311.402 101.935 311.262 101.45 311.147 100.934 311.026 100.42 310.933 99.893 310.867 99.352 310.802 98.811 310.761 98.268 310.745 97.724 310.735 97.177 310.75 96.65 310.791 96.143V96.143L313.339 95.741 313.581 95.958C313.379 97.081 313.297 98.171 313.333 99.23 313.362 100.291 313.532 101.251 313.843 102.108ZM71.523 194.926L76.321 191.157 73.357 182.5 67.262 182.481 66.396 179.95 89.021 180.548 89.997 183.398 72.489 197.747ZM75.702 182.507L78.16 189.685 85.086 184.346 87.62 182.604 87.527 182.333 84.457 182.51ZM79.214 206.698V206.698C79.503 207.261 79.848 207.746 80.248 208.153 80.645 208.554 81.072 208.855 81.527 209.057 81.983 209.26 82.455 209.358 82.942 209.353 83.426 209.342 83.904 209.215 84.377 208.972V208.972C84.934 208.686 85.339 208.314 85.593 207.854 85.847 207.395 86.011 206.878 86.084 206.305 86.157 205.732 86.167 205.11 86.114 204.441 86.055 203.775 85.998 203.096 85.942 202.406 85.889 201.721 85.86 201.032 85.856 200.338 85.846 199.647 85.928 198.988 86.104 198.362 86.28 197.736 86.571 197.154 86.976 196.617 87.379 196.074 87.961 195.606 88.725 195.214V195.214C89.53 194.801 90.336 194.582 91.143 194.558 91.947 194.544 92.714 194.697 93.445 195.018 94.183 195.336 94.865 195.816 95.493 196.458 96.118 197.094 96.665 197.869 97.135 198.783V198.783C97.421 199.341 97.726 200.068 98.049 200.966 98.372 201.864 98.637 202.857 98.843 203.945V203.945L96.38 204.67 96.122 204.481C96.092 203.9 96.034 203.347 95.949 202.825 95.864 202.302 95.763 201.822 95.646 201.384 95.535 200.944 95.407 200.547 95.263 200.192 95.129 199.84 94.998 199.54 94.87 199.292V199.292C94.609 198.783 94.311 198.358 93.975 198.018 93.646 197.674 93.288 197.418 92.903 197.248 92.52 197.085 92.118 197.008 91.694 197.019 91.274 197.036 90.849 197.154 90.419 197.375V197.375C89.844 197.67 89.42 198.053 89.148 198.521 88.885 198.993 88.71 199.523 88.621 200.112 88.536 200.707 88.514 201.342 88.555 202.017 88.592 202.687 88.638 203.371 88.691 204.071 88.747 204.762 88.777 205.454 88.782 206.148 88.792 206.84 88.726 207.493 88.583 208.11 88.438 208.736 88.183 209.306 87.82 209.822 87.457 210.337 86.928 210.774 86.231 211.131V211.131C85.468 211.523 84.657 211.733 83.799 211.76 82.937 211.781 82.088 211.632 81.25 211.312 80.415 210.983 79.626 210.481 78.882 209.807 78.14 209.124 77.51 208.277 76.991 207.265V207.265C76.77 206.835 76.57 206.371 76.392 205.874 76.207 205.379 76.047 204.868 75.914 204.34 75.78 203.811 75.671 203.278 75.586 202.74 75.507 202.199 75.456 201.674 75.432 201.166V201.166L77.91 200.445 78.176 200.63C78.119 201.769 78.174 202.862 78.344 203.907 78.507 204.956 78.797 205.886 79.214 206.698ZM104.097 214.025L88.724 225.149 87.06 222.849 102.433 211.725 98.308 206.024 100.377 205.069 110.207 218.655 108.138 219.61ZM107.176 233.741L104.479 230.923 98.37 236.769 96.407 234.718 111.732 220.052 115.876 224.383C116.597 225.136 117.155 225.926 117.551 226.753 117.942 227.585 118.167 228.397 118.227 229.188 118.286 229.989 118.188 230.747 117.931 231.464 117.674 232.19 117.261 232.826 116.69 233.372V233.372C116.188 233.853 115.632 234.211 115.02 234.448 114.408 234.685 113.781 234.833 113.139 234.891 112.493 234.944 111.843 234.925 111.19 234.833 110.537 234.742 109.926 234.611 109.357 234.439V234.439L106.772 245.55 104.421 243.092ZM112.079 223.65L106.102 229.369 109.357 232.771C109.802 232.91 110.248 232.988 110.696 233.002 111.153 233.017 111.595 232.972 112.021 232.865 112.451 232.764 112.862 232.607 113.252 232.394 113.641 232.191 113.996 231.936 114.316 231.63V231.63C114.714 231.249 115.02 230.825 115.232 230.357 115.44 229.885 115.535 229.389 115.518 228.868 115.505 228.343 115.366 227.798 115.099 227.234 114.837 226.674 114.43 226.107 113.879 225.531V225.531ZM120.22 252.991V252.991C121.114 253.648 122.068 254.07 123.08 254.256 124.082 254.444 125.082 254.423 126.08 254.192 127.077 253.962 128.032 253.536 128.945 252.914 129.863 252.287 130.678 251.488 131.392 250.517V250.517C132.142 249.496 132.669 248.439 132.974 247.346 133.284 246.246 133.384 245.179 133.274 244.144 133.169 243.103 132.865 242.132 132.361 241.23 131.858 240.328 131.171 239.556 130.298 238.915V238.915C129.388 238.246 128.427 237.823 127.416 237.646 126.396 237.471 125.39 237.505 124.4 237.749 123.408 237.983 122.457 238.416 121.545 239.047 120.633 239.678 119.825 240.474 119.119 241.434V241.434C118.373 242.449 117.845 243.502 117.534 244.591 117.227 245.675 117.126 246.733 117.23 247.764 117.338 248.79 117.646 249.756 118.155 250.662 118.654 251.57 119.342 252.346 120.22 252.991ZM118.501 254.503V254.503C117.409 253.701 116.509 252.74 115.803 251.62 115.086 250.503 114.616 249.303 114.391 248.023 114.166 246.742 114.208 245.421 114.516 244.059 114.829 242.701 115.458 241.38 116.402 240.096V240.096C117.055 239.207 117.783 238.446 118.587 237.812 119.397 237.181 120.249 236.671 121.144 236.281 122.039 235.891 122.965 235.621 123.92 235.47 124.876 235.319 125.827 235.296 126.773 235.399 127.714 235.499 128.636 235.716 129.539 236.051 130.433 236.386 131.278 236.847 132.073 237.431V237.431C132.781 237.951 133.413 238.546 133.968 239.217 134.519 239.892 134.98 240.615 135.351 241.387 135.724 242.167 135.988 242.987 136.143 243.844 136.293 244.698 136.332 245.571 136.259 246.464 136.18 247.353 135.968 248.245 135.623 249.14 135.279 250.045 134.786 250.933 134.145 251.806V251.806C133.5 252.683 132.776 253.444 131.974 254.088 131.171 254.732 130.32 255.251 129.421 255.647 128.532 256.041 127.614 256.313 126.668 256.462 125.717 256.617 124.773 256.649 123.833 256.559 122.889 256.465 121.964 256.246 121.059 255.902 120.154 255.558 119.302 255.092 118.501 254.503ZM153.045 260.019V260.019C153.515 260.404 153.93 260.839 154.29 261.324 154.656 261.811 154.936 262.325 155.131 262.864 155.329 263.397 155.431 263.951 155.439 264.527 155.44 265.1 155.316 265.67 155.068 266.237V266.237C154.871 266.686 154.594 267.122 154.237 267.546 153.88 267.969 153.453 268.35 152.955 268.689 152.459 269.022 151.906 269.3 151.295 269.523 150.678 269.743 150.013 269.886 149.3 269.952 148.59 270.013 147.84 269.977 147.049 269.846 146.253 269.712 145.431 269.459 144.583 269.087V269.087L139.598 266.901 148.12 247.476 153.582 249.872C154.654 250.342 155.536 250.874 156.228 251.468 156.91 252.064 157.429 252.678 157.783 253.31 158.138 253.942 158.34 254.565 158.39 255.182 158.43 255.802 158.335 256.374 158.106 256.897V256.897C157.911 257.34 157.633 257.738 157.269 258.092 156.909 258.439 156.5 258.743 156.044 259.004 155.587 259.265 155.1 259.478 154.581 259.645 154.062 259.811 153.55 259.936 153.045 260.019ZM146.194 258.932L143.101 265.984 145.785 267.161C146.664 267.547 147.455 267.76 148.159 267.801 148.856 267.839 149.47 267.759 150.003 267.562 150.527 267.368 150.968 267.082 151.327 266.704 151.677 266.33 151.952 265.915 152.152 265.46V265.46C152.398 264.899 152.499 264.363 152.455 263.853 152.411 263.343 152.239 262.863 151.939 262.411 151.648 261.957 151.238 261.535 150.71 261.147 150.187 260.762 149.568 260.412 148.851 260.097V260.097ZM147.097 256.875L151.661 258.877C152.491 258.713 153.214 258.439 153.828 258.054 154.45 257.673 154.905 257.151 155.195 256.49V256.49C155.586 255.599 155.532 254.731 155.032 253.887 154.539 253.046 153.606 252.325 152.234 251.723V251.723L149.821 250.665ZM166.877 267.634L163.11 266.62 160.911 274.785 158.17 274.047 163.684 253.565 169.473 255.123C170.479 255.394 171.365 255.781 172.133 256.284 172.898 256.793 173.511 257.37 173.972 258.016 174.437 258.67 174.746 259.37 174.898 260.116 175.054 260.871 175.03 261.629 174.824 262.392V262.392C174.644 263.062 174.353 263.657 173.952 264.177 173.552 264.697 173.092 265.148 172.573 265.53 172.048 265.91 171.482 266.23 170.876 266.49 170.27 266.75 169.679 266.954 169.104 267.102V267.102L172.647 277.945 169.363 277.061ZM165.844 256.463L163.694 264.451 168.24 265.675C168.693 265.564 169.114 265.399 169.505 265.18 169.904 264.956 170.258 264.688 170.567 264.376 170.883 264.066 171.153 263.72 171.376 263.335 171.604 262.96 171.776 262.558 171.891 262.131V262.131C172.034 261.598 172.076 261.077 172.016 260.567 171.949 260.056 171.773 259.582 171.489 259.146 171.206 258.703 170.805 258.309 170.284 257.965 169.77 257.622 169.128 257.347 168.359 257.14V257.14ZM190.043 280L177.9 278.501 180.499 257.449 192.845 258.973 192.145 261.14 183.043 260.017 182.212 266.747 190.321 267.748 189.61 269.924 181.937 268.977 180.993 276.619 190.754 277.824ZM210.584 279.336L208.351 273.658 199.207 274.011 197.44 279.844 194.766 279.947 201.836 258.447 204.846 258.33 213.564 279.221ZM199.887 271.767L207.47 271.474 204.344 263.307 203.403 260.379 203.117 260.39 202.405 263.381ZM219.007 278.211L214.766 257.427 221.79 255.994C223.625 255.619 225.287 255.541 226.777 255.758 228.268 255.982 229.566 256.436 230.672 257.121 231.776 257.799 232.682 258.681 233.39 259.766 234.099 260.858 234.591 262.075 234.864 263.416V263.416C235.042 264.289 235.121 265.187 235.101 266.109 235.082 267.037 234.953 267.952 234.713 268.856 234.467 269.761 234.104 270.638 233.624 271.486 233.15 272.333 232.54 273.107 231.794 273.809 231.042 274.518 230.151 275.137 229.119 275.668 228.095 276.196 226.915 276.597 225.581 276.869V276.869ZM217.995 259.051L221.339 275.441 225.642 274.563C227.01 274.284 228.162 273.82 229.1 273.17 230.031 272.521 230.753 271.756 231.268 270.872 231.781 269.982 232.099 269 232.22 267.926 232.348 266.851 232.295 265.74 232.061 264.592V264.592C231.806 263.345 231.383 262.26 230.792 261.338 230.209 260.422 229.48 259.692 228.605 259.148 227.728 258.597 226.714 258.244 225.564 258.09 224.414 257.936 223.155 257.998 221.787 258.277V258.277ZM256.837 262.615L257.467 264.189C257.144 264.831 256.742 265.41 256.259 265.926 255.779 266.449 255.27 266.909 254.733 267.308 254.198 267.712 253.667 268.053 253.14 268.33 252.613 268.607 252.138 268.83 251.714 269V269C250.418 269.519 249.116 269.773 247.806 269.762 246.502 269.748 245.268 269.487 244.104 268.978 242.939 268.468 241.882 267.715 240.932 266.716 239.989 265.715 239.225 264.484 238.64 263.024V263.024C238.202 261.931 237.925 260.854 237.809 259.793 237.701 258.736 237.735 257.721 237.91 256.749 238.077 255.773 238.37 254.849 238.791 253.976 239.212 253.104 239.737 252.299 240.366 251.563 240.996 250.827 241.715 250.169 242.524 249.589 243.333 249.008 244.208 248.529 245.15 248.152V248.152C245.77 247.904 246.535 247.664 247.447 247.431 248.364 247.196 249.378 247.025 250.487 246.918V246.918L250.969 249.442 250.757 249.681C249.591 249.627 248.552 249.687 247.639 249.862 246.726 250.037 245.973 250.243 245.379 250.481V250.481C244.304 250.911 243.398 251.516 242.661 252.295 241.918 253.076 241.365 253.958 241.003 254.939 240.634 255.923 240.458 256.968 240.476 258.076 240.494 259.183 240.72 260.278 241.153 261.358V261.358C241.57 262.401 242.138 263.344 242.856 264.186 243.572 265.021 244.397 265.688 245.33 266.188 246.267 266.678 247.294 266.963 248.412 267.044 249.521 267.121 250.679 266.917 251.886 266.434V266.434C252.24 266.292 252.617 266.116 253.016 265.905 253.422 265.691 253.838 265.429 254.264 265.119 254.69 264.809 255.125 264.448 255.568 264.036 256.006 263.626 256.428 263.153 256.837 262.615ZM264.934 252.327L261.578 254.316 265.89 261.59 263.448 263.038 252.632 244.79 257.789 241.734C258.685 241.203 259.581 240.838 260.477 240.639 261.376 240.447 262.217 240.411 263.001 240.532 263.794 240.656 264.511 240.923 265.151 241.335 265.8 241.75 266.326 242.297 266.729 242.976V242.976C267.083 243.574 267.306 244.197 267.399 244.847 267.491 245.497 267.493 246.141 267.404 246.779 267.309 247.421 267.144 248.049 266.907 248.664 266.67 249.28 266.404 249.845 266.108 250.361V250.361L276.345 255.393 273.419 257.127ZM256.215 245.267L260.433 252.383 264.483 249.982C264.72 249.581 264.896 249.164 265.011 248.731 265.129 248.289 265.185 247.849 265.178 247.41 265.177 246.967 265.117 246.532 264.998 246.104 264.888 245.678 264.72 245.275 264.494 244.894V244.894C264.213 244.42 263.869 244.026 263.462 243.714 263.049 243.404 262.587 243.199 262.076 243.098 261.562 242.992 261 243.004 260.39 243.137 259.785 243.265 259.14 243.533 258.455 243.939V243.939ZM266.862 235.642L269.052 233.835 277.434 243.999C278.106 244.813 278.818 245.404 279.571 245.771 280.328 246.144 281.081 246.344 281.828 246.373 282.569 246.405 283.281 246.295 283.963 246.041 284.64 245.792 285.244 245.448 285.774 245.011V245.011C286.31 244.569 286.739 244.051 287.062 243.459 287.395 242.867 287.586 242.237 287.636 241.569 287.686 240.892 287.587 240.184 287.339 239.444 287.091 238.705 286.657 237.959 286.038 237.208V237.208L277.506 226.863 279.523 225.2 288.035 235.521C288.408 235.973 288.738 236.491 289.025 237.074 289.318 237.654 289.542 238.268 289.697 238.916 289.852 239.565 289.925 240.242 289.915 240.947 289.91 241.657 289.799 242.362 289.582 243.062 289.364 243.772 289.023 244.472 288.56 245.162 288.098 245.843 287.492 246.494 286.74 247.113V247.113C285.826 247.867 284.872 248.416 283.876 248.76 282.876 249.1 281.878 249.221 280.881 249.126 279.884 249.03 278.902 248.706 277.935 248.153 276.977 247.602 276.078 246.817 275.237 245.798V245.798ZM299.029 234.454L297.439 236.425 281.943 221.851 284.617 218.536 299.432 223.756 302.093 224.866 302.278 224.636 300.625 222.278 292.395 208.894 295.082 205.564 312.598 217.635 310.847 219.805 297.171 210.228 294.732 208.405 294.559 208.619 296.284 211.1 305.42 225.832 303.811 227.827 287.465 222.081 284.639 220.916 284.466 221.13 286.753 223.094ZM310.128 197.55V197.55C310.549 197.111 311.016 196.732 311.528 196.412 312.043 196.086 312.577 195.847 313.13 195.696 313.676 195.541 314.237 195.483 314.812 195.522 315.383 195.566 315.942 195.735 316.487 196.028V196.028C316.919 196.26 317.332 196.57 317.726 196.96 318.119 197.349 318.465 197.805 318.764 198.329 319.056 198.849 319.289 199.423 319.463 200.049 319.633 200.682 319.723 201.356 319.732 202.072 319.735 202.785 319.64 203.53 319.447 204.307 319.25 205.091 318.933 205.89 318.495 206.706V206.706L315.918 211.501 297.233 201.461 300.056 196.207C300.61 195.176 301.21 194.339 301.857 193.697 302.506 193.064 303.159 192.596 303.817 192.292 304.475 191.989 305.113 191.837 305.731 191.837 306.352 191.846 306.915 191.986 307.419 192.257V192.257C307.844 192.485 308.219 192.795 308.543 193.185 308.86 193.572 309.131 194.004 309.355 194.479 309.578 194.955 309.752 195.458 309.877 195.989 310.001 196.519 310.085 197.04 310.128 197.55ZM308.5 204.292L315.283 207.936 316.67 205.354C317.124 204.509 317.4 203.737 317.497 203.039 317.59 202.347 317.56 201.728 317.405 201.181 317.253 200.644 317.003 200.181 316.655 199.793 316.31 199.414 315.919 199.107 315.481 198.872V198.872C314.941 198.582 314.415 198.439 313.903 198.442 313.391 198.445 312.899 198.578 312.425 198.842 311.948 199.096 311.496 199.471 311.067 199.967 310.641 200.457 310.243 201.047 309.872 201.737V201.737ZM306.52 203.228L308.879 198.838C308.782 197.998 308.566 197.256 308.232 196.612 307.901 195.963 307.417 195.467 306.781 195.126V195.126C305.924 194.665 305.055 194.65 304.174 195.081 303.296 195.506 302.503 196.378 301.794 197.698V197.698L300.547 200.019ZM324.608 187.633V187.633C324.824 187.038 324.945 186.455 324.97 185.885 324.993 185.321 324.924 184.804 324.761 184.332 324.599 183.861 324.35 183.448 324.015 183.095 323.677 182.748 323.258 182.484 322.759 182.303V182.303C322.17 182.09 321.621 182.047 321.112 182.174 320.602 182.3 320.113 182.532 319.643 182.869 319.173 183.206 318.712 183.621 318.257 184.116 317.809 184.613 317.352 185.117 316.884 185.628 316.419 186.133 315.933 186.623 315.428 187.099 314.929 187.577 314.39 187.965 313.811 188.262 313.233 188.56 312.609 188.743 311.94 188.812 311.268 188.887 310.529 188.778 309.722 188.486V188.486C308.871 188.178 308.162 187.736 307.595 187.162 307.037 186.583 306.627 185.917 306.364 185.162 306.095 184.406 305.982 183.579 306.024 182.682 306.065 181.792 306.26 180.863 306.61 179.896V179.896C306.823 179.307 307.149 178.589 307.586 177.741 308.024 176.893 308.571 176.023 309.227 175.131V175.131L311.435 176.441 311.472 176.759C311.067 177.177 310.702 177.595 310.377 178.013 310.052 178.431 309.769 178.832 309.529 179.216 309.282 179.597 309.078 179.961 308.916 180.308 308.75 180.646 308.619 180.947 308.524 181.209V181.209C308.329 181.747 308.221 182.254 308.201 182.732 308.173 183.207 308.229 183.644 308.367 184.041 308.508 184.433 308.726 184.78 309.022 185.082 309.32 185.379 309.696 185.609 310.151 185.774V185.774C310.759 185.994 311.327 186.044 311.856 185.924 312.38 185.796 312.888 185.563 313.379 185.227 313.873 184.885 314.353 184.468 314.82 183.979 315.285 183.495 315.756 182.996 316.232 182.481 316.699 181.969 317.186 181.476 317.692 181 318.191 180.522 318.715 180.125 319.263 179.81 319.821 179.49 320.412 179.288 321.036 179.203 321.661 179.118 322.341 179.208 323.078 179.475V179.475C323.884 179.767 324.59 180.218 325.194 180.828 325.796 181.445 326.266 182.169 326.602 183 326.929 183.836 327.099 184.755 327.112 185.759 327.116 186.767 326.924 187.806 326.537 188.875V188.875C326.373 189.33 326.169 189.792 325.926 190.261 325.69 190.733 325.424 191.198 325.128 191.656 324.832 192.113 324.516 192.556 324.179 192.985 323.837 193.411 323.487 193.806 323.131 194.169V194.169L320.917 192.846 320.87 192.525C321.744 191.791 322.506 191.007 323.157 190.17 323.814 189.337 324.298 188.491 324.608 187.633ZM60.863 142.921C60.863 138.384 64.54 134.706 69.077 134.706 73.614 134.706 77.292 138.384 77.292 142.921 77.292 147.458 73.614 151.135 69.077 151.135 64.54 151.135 60.863 147.458 60.863 142.921ZM318.228 142.921C318.228 138.384 321.906 134.706 326.443 134.706 330.98 134.706 334.657 138.384 334.657 142.921 334.657 147.458 330.98 151.135 326.443 151.135 321.906 151.135 318.228 147.458 318.228 142.921Z" fill="#eee" data-fill-palette-color="primary"></path></svg></g></svg></g></svg></g></svg></g><defs></defs></svg><rect width="395.52" height="280" fill="none" stroke="none" visibility="hidden"></rect></g></svg></g></svg>